<svg width="121" height="121" viewBox="0 0 121 121" fill="none" xmlns="http://www.w3.org/2000/svg">
<path d="M20.4733 47.4306C20.1493 47.4306 19.8186 47.3719 19.4999 47.2453C18.1293 46.7066 17.4546 45.1586 17.9919 43.7879C22.9559 31.1492 33.1853 21.4426 46.0573 17.1559C47.4519 16.6879 48.9639 17.4466 49.4293 18.8439C49.8946 20.2412 49.1386 21.7519 47.7413 22.2159C36.3733 26.0012 27.3386 34.5746 22.9559 45.7372C22.5439 46.7879 21.5386 47.4306 20.4733 47.4306Z" fill="#F7931A"/>
<path d="M60.4853 106.103C59.0133 106.103 57.8186 104.908 57.8186 103.436C57.8186 101.964 59.0133 100.769 60.4853 100.769C82.7079 100.769 100.789 82.6879 100.789 60.4639C100.789 58.9919 101.984 57.7972 103.456 57.7972C104.928 57.7972 106.123 58.9919 106.123 60.4639C106.123 85.6306 85.6506 106.103 60.4853 106.103Z" fill="#F7931A"/>
<path d="M60.4066 120.407C27.3226 120.407 0.406616 93.4906 0.406616 60.4066C0.406616 27.3226 27.3226 0.406586 60.4066 0.406586C69.7186 0.406586 78.648 2.48259 86.94 6.57725C88.26 7.22925 88.8013 8.82792 88.1493 10.1493C87.4986 11.4693 85.8999 12.0119 84.5773 11.3599C77.0266 7.63059 68.8933 5.73992 60.4066 5.73992C30.2639 5.73992 5.73995 30.2639 5.73995 60.4066C5.73995 90.5493 30.2639 115.073 60.4066 115.073C90.5493 115.073 115.073 90.5493 115.073 60.4066C115.073 49.8733 112.072 39.6479 106.395 30.8373C105.596 29.5986 105.953 27.9479 107.192 27.1506C108.431 26.3546 110.08 26.7093 110.879 27.9479C117.111 37.6226 120.407 48.8466 120.407 60.4066C120.407 93.4906 93.4906 120.407 60.4066 120.407Z" fill="#F7931A"/>
<path d="M105.891 15.0332H101.976V11.1186C101.976 9.64657 100.781 8.4519 99.3093 8.4519C97.8373 8.4519 96.6426 9.64657 96.6426 11.1186V15.0332H92.7279C91.2559 15.0332 90.0613 16.2279 90.0613 17.6999C90.0613 19.1719 91.2559 20.3666 92.7279 20.3666H96.6426V24.2812C96.6426 25.7532 97.8373 26.9479 99.3093 26.9479C100.781 26.9479 101.976 25.7532 101.976 24.2812V20.3666H105.891C107.363 20.3666 108.557 19.1719 108.557 17.6999C108.557 16.2279 107.364 15.0332 105.891 15.0332Z" fill="#F7931A"/>
<path d="M75.5453 67.9706C74.0733 67.9706 72.8786 69.1653 72.8786 70.6373C72.8786 73.5066 70.5439 75.8413 67.6746 75.8413H53.1386C50.2693 75.8413 47.9346 73.5066 47.9346 70.6373V50.1773C47.9346 47.3079 50.2693 44.9719 53.1386 44.9719H67.6746C70.5439 44.9719 72.8786 47.3066 72.8786 50.1773C72.8786 51.6493 74.0733 52.8439 75.5453 52.8439C77.0173 52.8439 78.2119 51.6493 78.2119 50.1773C78.2119 44.3666 73.4839 39.6386 67.6746 39.6386H63.0733V34.4066C63.0733 32.9346 61.8786 31.7399 60.4066 31.7399C58.9346 31.7399 57.7399 32.9346 57.7399 34.4066V39.6386H53.1386C47.3279 39.6386 42.6013 44.3653 42.6013 50.1773V70.6373C42.6013 76.4466 47.3279 81.1746 53.1386 81.1746H57.7399V86.4066C57.7399 87.8786 58.9346 89.0733 60.4066 89.0733C61.8786 89.0733 63.0733 87.8786 63.0733 86.4066V81.1746H67.6746C73.4839 81.1746 78.2119 76.4466 78.2119 70.6373C78.2119 69.1639 77.0186 67.9706 75.5453 67.9706Z" fill="#F7931A"/>
</svg>
